<svg id="Capa_3" data-name="Capa 3" xmlns="http://www.w3.org/2000/svg" viewBox="0 0 1920 1080">
  <path d="M1881.61,490.12l-94.35-94.35a114.92,114.92,0,0,1-162.5-162.5L1502.4,110.91a69.6,69.6,0,0,0-98.43,0L1229.05,285.84,1434,490.76a69.6,69.6,0,0,1,0,98.43L1229.68,793.47,1404,967.76a69.58,69.58,0,0,0,98.43,0l379.21-379.2A69.6,69.6,0,0,0,1881.61,490.12Z"/>
  <path d="M1380.15,490.76,1175.23,285.84,1000.94,111.55a69.58,69.58,0,0,0-98.43,0l-166,166L948.72,489.7a69.61,69.61,0,0,1,0,98.44L735.48,801.37l167,167a69.6,69.6,0,0,0,98.43,0l174.92-174.93,204.29-204.28A69.6,69.6,0,0,0,1380.15,490.76Z"/>
  <path d="M894.9,489.7,682.71,277.52l-167-167a69.6,69.6,0,0,0-98.43,0L38.05,489.7a69.61,69.61,0,0,0,0,98.44L417.26,967.35a69.6,69.6,0,0,0,98.43,0l166-166L894.9,588.14A69.61,69.61,0,0,0,894.9,489.7Z"/>
</svg>